Release Info:

General

Format                                   : Matroska
Format version                           : Version 2
File size                                : 726 MiB
Duration                                 : 1h 46mn
Overall bit rate                         : 957 Kbps


Video
ID                                       : 1
Format                                   : AVC
Format/Info                              : Advanced Video Codec
Format profile                           : High@L4.0
Format settings, CABAC                   : Yes
Format settings, ReFrames                : 5 frames
Muxing mode                              : Header stripping
Codec ID                                 : V_MPEG4/ISO/AVC
Duration                                 : 1h 46mn
Bit rate                                 : 828 Kbps
Width                                    : 1 280 pixels
Height                                   : 688 pixels
Display aspect ratio                     : 1.85:1
Frame rate mode                          : Constant
Frame rate                               : 23.976 fps
Color space                              : YUV
Chroma subsampling                       : 4:2:0
Bit depth                                : 8 bits
Scan type                                : Progressive
Bits/(Pixel*Frame)                       : 0.039
Stream size                              : 614 MiB (85%)
Language                                 : English
Default                                  : Yes
Forced                                   : No

Audio
ID                                       : 2
Format                                   : MPEG Audio
Format version                           : Version 1
Format profile                           : Layer 3
Mode                                     : Joint stereo
Mode extension                           : MS Stereo
Muxing mode                              : Header stripping
Codec ID                                 : A_MPEG/L3
Codec ID/Hint                            : MP3
Duration                                 : 1h 46mn
Bit rate mode                            : Constant
Bit rate                                 : 128 Kbps
Channel(s)                               : 2 channels
Sampling rate                            : 44.1 KHz
Compression mode                         : Lossy
Stream size                              : 97.1 MiB (13%)
Writing library                          : LAME3.98.2
Language                                 : English
Default                                  : Yes
Forced                                   : No

IMDB Info:

As the result of a childhood wish, John Bennett's teddy bear, Ted, came to life and has been by John's side ever since - a friendship that's tested when Lori, John's girlfriend of four years, wants more from their relationship.

Director: Seth MacFarlane
Writers: Seth MacFarlane (story), Seth MacFarlane (screenplay)
Stars: Mark Wahlberg, Mila Kunis and Seth MacFarlane 

Genres: Comedy | Fantasy
 
http://www.imdb.com/title/tt1637725/

Screen Shot:
 
http://www.shotpix.com/images/91282595176390735181.jpg 
http://www.shotpix.com/images/77630061943515754261.jpg 
http://www.shotpix.com/images/88385521127367616933.jpg 
http://www.shotpix.com/images/80200722101187969822.jpg 
http://www.shotpix.com/images/45299600995635248801.jpg 
http://www.shotpix.com/images/08626920092405079837.jpg 
http://www.shotpix.com/images/35930096166650082611.jpg 
http://www.shotpix.com/images/95073982344091885726.jpg 
http://www.shotpix.com/images/18888003895219292752.jpg